HIERARCHY
ROOT root
{
	OFFSET	0	13.1	24.9
	CHANNELS 6  Xposition Yposition Zposition Xrotation Yrotation Zrotation
	JOINT spine_1
	{
		OFFSET	0	9.99999	0
		CHANNELS 3  Xrotation Yrotation Zrotation
		JOINT spine_2
		{
			OFFSET	0	112	-10
			CHANNELS 3  Xrotation Yrotation Zrotation
			JOINT spine_3
			{
				OFFSET	0	206.5	19.3
				CHANNELS 3  Xrotation Yrotation Zrotation
				JOINT spine_4
				{
					OFFSET	0	110.4	14.6
					CHANNELS 3  Xrotation Yrotation Zrotation
					JOINT neck_1
					{
						OFFSET	0	71.8	-50.3
						CHANNELS 3  Xrotation Yrotation Zrotation
						JOINT neck_2
						{
							OFFSET	0	86.2	-25.8
							CHANNELS 3  Xrotation Yrotation Zrotation
							JOINT head_ee
							{
								OFFSET	0	179.8	-8.7
								CHANNELS 3  Xrotation Yrotation Zrotation
								End Site
								{
									OFFSET	1	0	0
								}
							}
						}
					}
					JOINT left_clavicle
					{
						OFFSET	-43.2	22.4	-70.8
						CHANNELS 3  Xrotation Yrotation Zrotation
						JOINT left_shoulder
						{
							OFFSET	-93.9	-5.79999	48.7
							CHANNELS 3  Xrotation Yrotation Zrotation
							JOINT left_elbow
							{
								OFFSET	-291.4	-30.8	15.2
								CHANNELS 3  Xrotation Yrotation Zrotation
								JOINT left_lowarm_twist
								{
									OFFSET	-110.7	-3.89999	13.6
									CHANNELS 3  Xrotation Yrotation Zrotation
									JOINT left_hand
									{
										OFFSET	-110.7	-3.89999	13.6
										CHANNELS 3  Xrotation Yrotation Zrotation
										JOINT left_ee
										{
											OFFSET	-80.8	-5.10001	12.1
											CHANNELS 3  Xrotation Yrotation Zrotation
											End Site
											{
												OFFSET	1	0	0
											}
										}
									}
								}
							}
						}
					}
					JOINT right_clavicle
					{
						OFFSET	43.2	22.4	-70.8
						CHANNELS 3  Xrotation Yrotation Zrotation
						JOINT right_shoulder
						{
							OFFSET	93.9	-5.79999	48.7
							CHANNELS 3  Xrotation Yrotation Zrotation
							JOINT right_elbow
							{
								OFFSET	291.4	-30.8	15.2
								CHANNELS 3  Xrotation Yrotation Zrotation
								JOINT right_lowarm_twist
								{
									OFFSET	110.7	-3.89999	13.6
									CHANNELS 3  Xrotation Yrotation Zrotation
									JOINT right_hand
									{
										OFFSET	110.7	-3.89999	13.6
										CHANNELS 3  Xrotation Yrotation Zrotation
										JOINT right_ee
										{
											OFFSET	80.8	-5.10001	12.1
											CHANNELS 3  Xrotation Yrotation Zrotation
											End Site
											{
												OFFSET	1	0	0
											}
										}
									}
								}
							}
						}
					}
				}
			}
		}
	}
	JOINT left_hip
	{
		OFFSET	-82.8	-127.5	0.300001
		CHANNELS 3  Xrotation Yrotation Zrotation
		JOINT left_knee
		{
			OFFSET	-28.2	-396.7	2.2
			CHANNELS 3  Xrotation Yrotation Zrotation
			JOINT left_ankle
			{
				OFFSET	-11.7	-411.3	35.4
				CHANNELS 3  Xrotation Yrotation Zrotation
				JOINT left_toes
				{
					OFFSET	0	-60	-88.6
					CHANNELS 3  Xrotation Yrotation Zrotation
					JOINT left_foot_ee
					{
						OFFSET	-22.5	-16.5	-42.2
						CHANNELS 3  Xrotation Yrotation Zrotation
						End Site
						{
							OFFSET	1	0	0
						}
					}
				}
			}
		}
	}
	JOINT right_hip
	{
		OFFSET	82.8	-127.5	0.300001
		CHANNELS 3  Xrotation Yrotation Zrotation
		JOINT right_knee
		{
			OFFSET	28.2	-396.7	2.2
			CHANNELS 3  Xrotation Yrotation Zrotation
			JOINT right_ankle
			{
				OFFSET	11.7	-411.3	35.4
				CHANNELS 3  Xrotation Yrotation Zrotation
				JOINT right_toes
				{
					OFFSET	0	-60	-88.6
					CHANNELS 3  Xrotation Yrotation Zrotation
					JOINT right_foot_ee
					{
						OFFSET	22.5	-16.5	-42.2
						CHANNELS 3  Xrotation Yrotation Zrotation
						End Site
						{
							OFFSET	1	0	0
						}
					}
				}
			}
		}
	}
}
MOTION
Frames: 11
Frame Time: 0.02
3244.4 705.605 -1599.54 -24.7037 65.5609 26.2222 2.06278 0.382355 2.6203 2.06658 0.214904 2.6393 2.07631 -0.249364 2.63627 2.06665 0.169965 2.64257 -3.43695 17.224 -7.41917 -2.52837 37.0677 -5.32917 -0.0 0.0 -0.0 -1.66644 23.8874 0.501741 -39.2909 -15.2817 65.2522 0.706439 -19.2875 0.120041 8.85265 0.22677 -1.10698 0.854736 6.89316 8.47091 -0.0 0.0 -0.0 12.3168 24.8676 -24.2304 5.90129 34.3728 -59.0623 2.09851 46.1051 -0.893119 -44.1059 3.39802 -4.33971 -5.13585 -1.75092 35.7646 0.0 0.0 0.0 21.6072 -29.4593 -18.9431 2.49832 -0.110914 -0.36728 -1.84718 12.3544 0.272081 -3.29516 0.0 0.0 -0.0 0.0 -0.0 -6.95185 8.49552 2.33279 -5.79912 -0.194956 -0.868263 14.0549 12.8663 2.10049 28.0463 -0.0 -0.0 0.0 0.0 0.0 
3223.92 703.979 -1595.54 -24.3235 64.8262 26.047 2.18416 0.389034 2.59008 2.18787 0.22349 2.60957 2.19777 -0.23017 2.60899 2.18832 0.184615 2.61261 -1.20643 16.9677 -7.96359 0.138417 36.8123 -6.81221 -0.0 0.0 -0.0 -1.67818 23.7132 0.458177 -39.1219 -15.4968 65.2532 0.686986 -18.7942 0.113695 8.90434 0.227589 -1.11353 0.841273 7.57269 8.64606 -0.0 0.0 -0.0 12.2997 24.8119 -24.197 4.88929 33.9157 -59.3969 2.14271 46.7012 -0.925129 -44.7291 3.46755 -4.37924 -5.31902 -1.86282 37.2217 0.0 0.0 0.0 20.8767 -29.8913 -18.2592 1.47701 -0.0636341 -0.217711 -2.05815 12.0344 0.303182 -2.21231 0.0 0.0 -0.0 0.0 -0.0 -7.14347 8.56189 2.63575 -6.48004 -0.212051 -0.971359 13.9332 12.8088 2.08265 28.1696 -0.0 -0.0 0.0 0.0 0.0 
3194.29 718.096 -1590.26 -22.8558 64.313 24.4781 2.11583 0.326116 2.619 2.11963 0.158861 2.63443 2.12668 -0.301444 2.62195 2.11711 0.116278 2.63665 -2.14228 17.6494 -5.30165 -1.18541 36.0941 -3.4653 -0.0 0.0 -0.0 -1.55792 23.5998 0.604365 -38.7644 -15.8907 65.6874 0.76103 -20.656 0.138689 9.08726 0.23044 -1.13672 0.80461 8.44665 8.74316 -0.0 0.0 -0.0 12.5258 24.6769 -24.731 2.07819 33.3361 -59.9591 2.14349 46.7115 -0.925694 -45.4939 3.55346 -4.42673 -5.44421 -2.62037 37.7794 0.0 0.0 0.0 20.405 -30.1261 -17.1621 -3.47644 0.127444 0.518222 -2.20753 12.15 0.325332 0.251829 -0.0 -0.0 -0.0 0.0 -0.0 -7.29008 8.62971 2.73869 -7.2351 -0.229572 -1.08591 12.3372 12.1463 1.8489 28.9553 -0.0 -0.0 0.0 0.0 0.0 
3169.66 723.064 -1588.83 -20.6913 64.3805 22.6422 2.07076 0.200736 2.34762 2.07383 0.0509865 2.35563 2.07571 -0.361339 2.32832 2.06814 0.010805 2.35615 -3.0627 18.0278 -3.49002 -2.37098 35.5281 -1.14803 -0.0 0.0 -0.0 -1.68976 23.3009 0.37684 -38.9057 -16.0669 65.703 0.813374 -21.9454 0.157704 9.1 0.230636 -1.13834 0.796573 8.79477 8.82456 -0.0 0.0 -0.0 12.7033 24.6294 -25.1453 -0.0480117 32.9426 -60.4419 2.14867 46.7805 -0.929468 -46.0354 3.61467 -4.45966 -5.53122 -3.15829 38.1554 0.0 0.0 0.0 19.8278 -30.4143 -16.0997 -8.26572 0.251048 1.2426 -2.48097 12.1995 0.365859 1.92857 -0.0 -0.0 -0.0 0.0 -0.0 -7.9392 9.04584 4.22162 -9.95257 -0.280104 -1.4998 11.1794 10.1581 1.66345 29.664 -0.0 -0.0 0.0 0.0 0.0 
3150.41 718.247 -1582.45 -19.0342 64.8274 20.8781 2.05199 0.111069 2.16274 2.05459 -0.0267438 2.16542 2.05337 -0.405497 2.1273 2.04706 -0.0645224 2.16462 -3.71694 18.2735 -2.21059 -3.18753 35.1135 0.459138 -0.0 0.0 -0.0 -1.66178 22.8703 0.347147 -38.6042 -16.2943 65.594 0.858742 -23.0445 0.175063 9.10244 0.230673 -1.13865 0.789093 9.02506 8.86415 -0.0 0.0 -0.0 12.808 24.5883 -25.3915 -1.60856 32.6505 -60.7685 2.13943 46.6574 -0.922744 -46.4139 3.65763 -4.48233 -5.59203 -3.56499 38.3949 0.0 0.0 0.0 18.9866 -30.4022 -14.4976 -11.7448 0.302664 1.77387 -2.67232 12.2358 0.394248 3.10308 -0.0 -0.0 -0.0 0.0 -0.0 -8.4368 9.37225 5.02224 -12.5265 -0.309816 -1.8936 10.3263 8.69546 1.52948 30.1649 -0.0 -0.0 0.0 0.0 0.0 
3117.57 722.622 -1577.69 -17.2864 65.3828 19.583 1.94275 0.00297871 2.07201 1.94513 -0.128846 2.068 1.94029 -0.492983 2.01253 1.93468 -0.169026 2.06511 -4.1413 18.4384 -1.32524 -3.70775 34.8242 1.54831 -0.0 0.0 -0.0 -1.56309 22.0867 0.362216 -37.031 -16.4043 65.5285 0.916035 -24.4071 0.198117 9.27133 0.233233 -1.16007 0.780407 9.24009 8.88996 -0.0 0.0 -0.0 12.566 24.6492 -24.8267 -4.12565 32.0278 -60.2599 2.08493 45.9193 -0.883348 -46.4902 3.66632 -4.48687 -5.63417 -3.86038 38.5499 0.0 0.0 0.0 18.3225 -30.2915 -13.5221 -14.254 0.319824 2.15844 -3.02258 13.3595 0.446896 3.67449 -0.0 -0.0 -0.0 0.0 -0.0 -8.66922 10.002 6.07353 -17.6628 -0.316138 -2.68136 9.79465 6.15926 1.43617 30.5165 -0.0 -0.0 0.0 0.0 0.0 
3101.46 728.525 -1574.22 -14.7514 65.9562 17.0059 1.9138 -0.101005 1.9355 1.91585 -0.223938 1.92515 1.90813 -0.562345 1.85478 1.90342 -0.262416 1.92029 -4.50386 18.4865 -0.654571 -4.14535 34.4762 2.36785 -0.0 0.0 -0.0 -1.39408 20.0543 0.294044 -35.47 -16.639 65.3085 0.958437 -25.3971 0.215972 9.65038 0.23875 -1.20817 0.775274 9.38711 8.91283 -0.0 0.0 -0.0 12.3954 24.6925 -24.4295 -6.66838 31.504 -60.3056 2.04784 45.4053 -0.856816 -46.5436 3.67239 -4.49003 -5.63374 -4.05064 38.4131 0.0 0.0 0.0 17.9758 -29.2045 -11.1944 -16.1884 0.32155 2.45522 -3.79831 14.723 0.563739 3.87083 -0.0 -0.0 -0.0 0.0 -0.0 -8.91457 10.6797 5.91829 -21.3707 -0.27683 -3.24884 8.29866 3.38322 1.2101 30.3743 -0.0 -0.0 0.0 0.0 0.0 
3080.27 724.501 -1570.45 -11.0286 67.7742 13.0585 1.80589 -0.170164 1.87352 1.80779 -0.289015 1.85891 1.79824 -0.618048 1.77684 1.79399 -0.329723 1.85212 -5.0157 18.5216 -0.0647439 -4.74409 34.1962 3.14292 -0.0 0.0 -0.0 -1.167 18.6308 0.421359 -34.2626 -16.9712 65.4393 0.986146 -26.0354 0.227996 9.83882 0.241374 -1.2321 0.762187 9.49422 8.86862 -0.0 0.0 -0.0 12.2837 24.7243 -24.1696 -8.42306 31.1493 -60.3853 2.02258 45.05 -0.838886 -46.5764 3.67613 -4.49197 -5.62911 -4.18552 38.2791 0.0 0.0 0.0 17.694 -28.4381 -9.5267 -17.5392 0.316814 2.66242 -4.33921 15.7157 0.645984 4.00845 -0.0 -0.0 -0.0 0.0 -0.0 -8.85668 11.5425 5.81231 -23.9562 -0.227732 -3.64252 7.11023 1.43176 1.0345 30.2177 -0.0 -0.0 0.0 0.0 0.0 
3060.81 741.538 -1563.96 -9.96328 68.7675 11.713 1.27036 -0.302946 1.8344 1.27213 -0.41904 1.81141 1.25884 -0.753517 1.69974 1.25512 -0.475665 1.79738 -5.56912 19.0329 0.182578 -5.36729 35.0652 3.66634 -0.0 0.0 -0.0 -0.897786 17.493 0.670488 -30.3142 -17.4569 64.9214 1.00508 -26.4675 0.236369 10.3635 0.248265 -1.29876 0.705632 10.0602 8.71779 -0.0 0.0 -0.0 11.9685 24.6829 -23.452 -10.6479 30.6307 -60.2597 1.95983 44.1476 -0.794825 -46.7261 3.69319 -4.50081 -5.58865 -4.86271 37.4616 0.0 0.0 0.0 16.7247 -27.433 -6.89037 -19.7459 0.298576 3.00048 -2.57309 17.0964 0.383023 4.76639 -0.0 -0.0 -0.0 0.0 -0.0 -8.92574 12.5879 4.41329 -27.0365 -0.146119 -4.10813 6.11416 -0.459145 0.888017 30.6758 -0.0 -0.0 0.0 0.0 0.0 
3035.43 751.307 -1558.03 -7.33801 70.2071 9.3091 0.830599 -0.384329 1.76085 0.832187 -0.495581 1.73284 0.817221 -0.826229 1.6018 0.814082 -0.562925 1.71215 -7.59078 19.103 1.48622 -7.691 34.634 5.65393 -0.0 0.0 -0.0 -0.679464 15.7651 0.777963 -26.2303 -17.696 64.3377 0.976118 -25.8052 0.223612 10.8374 0.253965 -1.35903 0.443525 11.5055 7.58347 -0.0 0.0 -0.0 11.6059 23.6035 -22.7318 -12.7994 30.0274 -60.2882 1.8767 42.9081 -0.737568 -46.1938 3.63264 -4.46918 -5.44911 -6.40504 35.2287 0.0 0.0 0.0 14.336 -26.4751 -4.21861 -21.2904 0.278071 3.23658 -0.195793 20.7284 0.0293401 5.96409 -0.0 -0.0 -0.0 0.0 -0.0 -2.79784 19.0453 2.14453 -39.5135 0.436109 -5.93007 4.75422 -1.92977 0.691224 32.0398 -0.0 -0.0 0.0 0.0 0.0 
3025.38 748.004 -1550.39 -3.77709 71.1141 5.04359 0.615219 -0.402942 1.74614 0.616769 -0.513221 1.71698 0.601452 -0.84637 1.57961 0.598449 -0.586317 1.69342 -8.91651 19.5184 2.10463 -9.21883 35.2309 6.81335 -0.0 0.0 -0.0 0.230442 12.9869 1.91318 -23.0188 -17.8066 63.9239 0.874672 -23.4262 0.181348 11.2247 0.258252 -1.40831 0.00645683 12.1964 5.06848 -0.0 0.0 -0.0 10.9927 22.6219 -21.4287 -14.378 29.7475 -60.2212 1.95588 44.0899 -0.792078 -46.3575 3.65122 -4.47897 -5.29475 -9.59081 31.7784 0.0 0.0 0.0 12.5316 -26.1863 -3.94458 -16.624 0.320557 2.52204 -1.006 24.2877 0.153384 5.81415 -0.0 -0.0 -0.0 0.0 -0.0 -1.3543 24.7367 1.24623 -50.5468 1.27013 -7.40572 3.58008 -4.5073 0.520235 33.7363 -0.0 -0.0 0.0 0.0 0.0 
